<svg viewBox="0 0 640 400" data-background-color="#000000" preserveAspectRatio="xMidYMid meet" height="400" width="640" xmlns="http://www.w3.org/2000/svg" xmlns:xlink="http://www.w3.org/1999/xlink"><rect width="640" height="400" x="0" y="0" opacity="1" fill="#000000" data-fill-palette-color="background" id="background"/><g id="tight-bounds" transform="matrix(1,0,0,1,122.24000000000001,171.92041710114702)"><svg viewBox="0 0 395.52 56.15916579770593" height="56.15916579770593" width="395.52"><g><svg viewBox="0 0 395.52 56.15916579770593" height="56.15916579770593" width="395.52"><g><svg viewBox="0 0 395.52 56.15916579770593" height="56.15916579770593" width="395.52"><g id="textblocktransform"><svg viewBox="0 0 395.52 56.15916579770593" height="56.15916579770593" width="395.52" id="textblock"><g><svg viewBox="0 0 395.52 56.15916579770593" height="56.15916579770593" width="395.52"><g transform="matrix(1,0,0,1,0,0)"><svg width="395.52" viewBox="4 -40.45000076293945 287.67999267578125 40.85000228881836" height="56.15916579770593" data-palette-color="#ffffff"><path d="M13.3-22.85L22.95-22.85Q24.25-22.85 25.65-22.3 27.05-21.75 28.35-20.85L28.35-20.85 28.3-20.85Q29.6-19.95 30.3-18.4 31-16.85 31-14.85L31-14.85 31-8Q31-3.95 28.3-1.95L28.3-1.95Q27-1 25.63-0.48 24.25 0.05 22.95 0.05L22.95 0.05 12.05 0.05Q10.75 0.05 9.38-0.48 8-1 6.7-1.95L6.7-1.95Q4-3.95 4-8L4-8 4-11.3Q4-13.65 6.95-13.65L6.95-13.65Q9.95-13.65 9.95-11.3L9.95-11.3 9.95-8.4Q9.95-7.1 10.7-6.05 11.45-5 13.3-5L13.3-5 21.7-5Q23.55-5 24.3-6.05 25.05-7.1 25.05-8.4L25.05-8.4 25.05-14.45Q25.05-15.7 24.3-16.78 23.55-17.85 21.7-17.85L21.7-17.85 12.05-17.85Q9.45-17.85 6.7-19.75L6.7-19.75Q4-21.85 4-25.8L4-25.8 4-31.75Q4-33.75 4.7-35.27 5.4-36.8 6.7-37.75L6.7-37.75 6.65-37.75Q7.95-38.6 9.35-39.15 10.75-39.7 12.05-39.7L12.05-39.7 22.95-39.7Q24.25-39.7 25.65-39.15 27.05-38.6 28.35-37.75L28.35-37.75 28.3-37.75Q29.6-36.8 30.3-35.27 31-33.75 31-31.75L31-31.75 31-28.8Q31-26.45 28-26.45L28-26.45Q25.05-26.45 25.05-28.8L25.05-28.8 25.05-31.3Q25.05-32.55 24.3-33.6 23.55-34.65 21.7-34.65L21.7-34.65 13.3-34.65Q11.45-34.65 10.7-33.6 9.95-32.55 9.95-31.3L9.95-31.3 9.95-26.2Q9.95-24.9 10.7-23.88 11.45-22.85 13.3-22.85L13.3-22.85ZM46.4-30.1L54.4-30.1Q55.7-30.1 57.07-29.55 58.45-29 59.75-28.15L59.75-28.15 59.7-28.15Q61-27.2 61.7-25.68 62.4-24.15 62.4-22.15L62.4-22.15 62.4-7.95Q62.4-3.85 59.7-1.9L59.7-1.9Q57.05 0 54.4 0L54.4 0 46.4 0Q45.1 0 43.75-0.45 42.4-0.9 41.1-1.9L41.1-1.9Q38.4-3.8 38.4-7.95L38.4-7.95 38.4-22.15Q38.4-24.15 39.1-25.68 39.8-27.2 41.1-28.15L41.1-28.15 41.05-28.15Q42.3-29 43.7-29.55 45.1-30.1 46.4-30.1L46.4-30.1ZM47.3-4.7L53.5-4.7Q55.35-4.7 56.12-5.75 56.9-6.8 56.9-8L56.9-8 56.9-22.1Q56.9-23.35 56.12-24.38 55.35-25.4 53.5-25.4L53.5-25.4 47.3-25.4Q45.45-25.4 44.67-24.38 43.9-23.35 43.9-22.1L43.9-22.1 43.9-8Q43.9-6.8 44.67-5.75 45.45-4.7 47.3-4.7L47.3-4.7ZM92.75-10.3L92.75-7.95Q92.75-3.85 90.05-1.9L90.05-1.9Q87.4 0 84.75 0L84.75 0 76.35 0Q73.7 0 71.2-1.9L71.2-1.9Q70-2.9 69.35-4.42 68.7-5.95 68.7-7.95L68.7-7.95 68.7-22.2Q68.7-26.25 71.2-28.2L71.2-28.2Q72.45-29.1 73.77-29.63 75.1-30.15 76.35-30.15L76.35-30.15 84.75-30.15Q85.95-30.15 87.4-29.68 88.85-29.2 90.1-28.4L90.1-28.4Q91.3-27.55 92.02-26.05 92.75-24.55 92.75-22.5L92.75-22.5 92.75-20Q92.75-17.6 90-17.6L90-17.6Q87.25-17.6 87.25-20L87.25-20 87.25-22.15Q87.25-23.4 86.47-24.43 85.7-25.45 83.85-25.45L83.85-25.45 77.6-25.45Q75.75-25.45 74.97-24.43 74.2-23.4 74.2-22.15L74.2-22.15 74.2-8Q74.2-6.8 74.97-5.75 75.75-4.7 77.6-4.7L77.6-4.7 83.85-4.7Q85.7-4.7 86.47-5.75 87.25-6.8 87.25-8L87.25-8 87.25-10.3Q87.25-12.65 90-12.65L90-12.65Q92.75-12.65 92.75-10.3L92.75-10.3ZM104.64-27.9L104.64-2.1Q104.64 0.3 101.89 0.3L101.89 0.3Q99.09 0.3 99.09-2.1L99.09-2.1 99.09-27.9Q99.09-30.3 101.89-30.3L101.89-30.3Q104.64-30.3 104.64-27.9L104.64-27.9ZM105.69-36.6L105.69-36.6Q105.69-35 104.59-33.9 103.49-32.8 101.89-32.8L101.89-32.8Q100.29-32.8 99.17-33.9 98.04-35 98.04-36.6L98.04-36.6Q98.04-38.25 99.17-39.35 100.29-40.45 101.89-40.45L101.89-40.45Q103.49-40.45 104.59-39.35 105.69-38.25 105.69-36.6ZM125.69 0L119.14 0Q117.59 0 116.19-0.43 114.79-0.85 113.49-1.65L113.49-1.65 113.49-1.6Q111.04-3.15 111.04-7.3L111.04-7.3 111.04-9.75Q111.04-11.8 111.77-13.33 112.49-14.85 113.79-15.75L113.79-15.75 113.74-15.75Q114.99-16.6 116.39-17.03 117.79-17.45 119.09-17.45L119.09-17.45 130.14-17.45 130.14-22.1Q130.14-23.35 129.37-24.38 128.59-25.4 126.74-25.4L126.74-25.4 120.89-25.4Q118.99-25.4 118.27-24.48 117.54-23.55 117.54-22.3L117.54-22.3 117.54-21.9Q117.54-19.3 114.74-19.3L114.74-19.3Q111.94-19.3 111.94-21.9L111.94-21.9 111.94-22.35Q111.94-24.4 112.67-25.8 113.39-27.2 114.64-28.15L114.64-28.15 114.59-28.15Q115.89-29 117.32-29.55 118.74-30.1 120.04-30.1L120.04-30.1 127.64-30.1Q128.89-30.1 130.32-29.55 131.74-29 132.99-28.15L132.99-28.15 132.94-28.15Q134.24-27.2 134.94-25.68 135.64-24.15 135.64-22.15L135.64-22.15 135.64-2.1Q135.64 0.3 132.89 0.3L132.89 0.3Q132.34 0.3 131.87 0.25 131.39 0.2 131.02-0.03 130.64-0.25 130.42-0.68 130.19-1.1 130.19-1.8L130.19-1.8 130.14-12.75 120.04-12.75Q118.94-12.75 118.34-12.5 117.74-12.25 117.39-11.7L117.39-11.7Q116.99-10.85 116.82-10.38 116.64-9.9 116.64-9.3L116.64-9.3 116.64-7.35Q116.64-6.05 117.42-5.38 118.19-4.7 120.09-4.7L120.09-4.7 125.69-4.7Q127.54-4.7 127.54-2.35L127.54-2.35Q127.54-1.35 127.09-0.68 126.64 0 125.69 0L125.69 0ZM147.79-37.8L147.79-1.95Q147.79 0.4 145.04 0.4L145.04 0.4Q142.24 0.4 142.24-1.95L142.24-1.95 142.24-37.8Q142.24-40.15 145.04-40.15L145.04-40.15Q147.79-40.15 147.79-37.8L147.79-37.8ZM164.44-22.85L174.09-22.85Q175.39-22.85 176.79-22.3 178.19-21.75 179.49-20.85L179.49-20.85 179.44-20.85Q180.74-19.95 181.44-18.4 182.14-16.85 182.14-14.85L182.14-14.85 182.14-8Q182.14-3.95 179.44-1.95L179.44-1.95Q178.14-1 176.76-0.48 175.39 0.05 174.09 0.05L174.09 0.05 163.19 0.05Q161.89 0.05 160.51-0.48 159.14-1 157.84-1.95L157.84-1.95Q155.14-3.95 155.14-8L155.14-8 155.14-11.3Q155.14-13.65 158.09-13.65L158.09-13.65Q161.09-13.65 161.09-11.3L161.09-11.3 161.09-8.4Q161.09-7.1 161.84-6.05 162.59-5 164.44-5L164.44-5 172.84-5Q174.69-5 175.44-6.05 176.19-7.1 176.19-8.4L176.19-8.4 176.19-14.45Q176.19-15.7 175.44-16.78 174.69-17.85 172.84-17.85L172.84-17.85 163.19-17.85Q160.59-17.85 157.84-19.75L157.84-19.75Q155.14-21.85 155.14-25.8L155.14-25.8 155.14-31.75Q155.14-33.75 155.84-35.27 156.54-36.8 157.84-37.75L157.84-37.75 157.79-37.75Q159.09-38.6 160.49-39.15 161.89-39.7 163.19-39.7L163.19-39.7 174.09-39.7Q175.39-39.7 176.79-39.15 178.19-38.6 179.49-37.75L179.49-37.75 179.44-37.75Q180.74-36.8 181.44-35.27 182.14-33.75 182.14-31.75L182.14-31.75 182.14-28.8Q182.14-26.45 179.14-26.45L179.14-26.45Q176.19-26.45 176.19-28.8L176.19-28.8 176.19-31.3Q176.19-32.55 175.44-33.6 174.69-34.65 172.84-34.65L172.84-34.65 164.44-34.65Q162.59-34.65 161.84-33.6 161.09-32.55 161.09-31.3L161.09-31.3 161.09-26.2Q161.09-24.9 161.84-23.88 162.59-22.85 164.44-22.85L164.44-22.85ZM195.03-25.4L195.03-2.1Q195.03 0.3 192.28 0.3L192.28 0.3Q189.53 0.3 189.53-2.1L189.53-2.1 189.53-37.6Q189.53-40 192.28-40L192.28-40Q195.03-40 195.03-37.6L195.03-37.6 195.03-30.1 205.58-30.1Q208.13-30.1 210.88-28.2L210.88-28.2Q213.58-26.3 213.58-22.2L213.58-22.2 213.58-2.1Q213.58 0.3 210.83 0.3L210.83 0.3Q208.08 0.3 208.08-2.1L208.08-2.1 208.08-21.75Q208.08-23.05 207.28-24.25L207.28-24.25 207.33-24.2Q206.68-25.4 204.68-25.4L204.68-25.4 195.03-25.4ZM228.18-30.1L236.18-30.1Q237.48-30.1 238.86-29.55 240.23-29 241.53-28.15L241.53-28.15 241.48-28.15Q242.78-27.2 243.48-25.68 244.18-24.15 244.18-22.15L244.18-22.15 244.18-7.95Q244.18-3.85 241.48-1.9L241.48-1.9Q238.83 0 236.18 0L236.18 0 228.18 0Q226.88 0 225.53-0.45 224.18-0.9 222.88-1.9L222.88-1.9Q220.18-3.8 220.18-7.95L220.18-7.95 220.18-22.15Q220.18-24.15 220.88-25.68 221.58-27.2 222.88-28.15L222.88-28.15 222.83-28.15Q224.08-29 225.48-29.55 226.88-30.1 228.18-30.1L228.18-30.1ZM229.08-4.7L235.28-4.7Q237.13-4.7 237.91-5.75 238.68-6.8 238.68-8L238.68-8 238.68-22.1Q238.68-23.35 237.91-24.38 237.13-25.4 235.28-25.4L235.28-25.4 229.08-25.4Q227.23-25.4 226.46-24.38 225.68-23.35 225.68-22.1L225.68-22.1 225.68-8Q225.68-6.8 226.46-5.75 227.23-4.7 229.08-4.7L229.08-4.7ZM261.18-25.4L257.03-25.4 257.03-7.2Q257.03-5.9 257.58-5.2 258.13-4.5 259.93-4.5L259.93-4.5 261.23-4.5Q263.18-4.5 263.08-2.2L263.08-2.2Q263.08 0.15 261.23 0.15L261.23 0.15 259.58 0.15Q257.98 0.15 256.58-0.28 255.18-0.7 253.88-1.5L253.88-1.5 253.88-1.45Q251.43-3.05 251.43-7.15L251.43-7.15 251.43-25.4 249.48-25.4Q247.68-25.4 247.58-27.75L247.58-27.75Q247.58-30.1 249.48-30.1L249.48-30.1 251.43-30.1 251.43-35.45Q251.43-37.85 254.28-37.85L254.28-37.85Q257.03-37.85 257.03-35.45L257.03-35.45 257.03-30.1 261.18-30.1Q263.13-30.1 263.03-27.75L263.03-27.75Q263.03-25.4 261.18-25.4L261.18-25.4ZM276.33-17.5L283.68-17.5Q284.93-17.5 286.35-16.93 287.78-16.35 289.03-15.5L289.03-15.5 288.98-15.5Q290.28-14.55 290.98-13.05 291.68-11.55 291.68-9.45L291.68-9.45 291.68-7.95Q291.68-3.85 288.98-1.9L288.98-1.9Q287.68-0.9 286.33-0.45 284.98 0 283.68 0L283.68 0 275.18 0Q273.88 0 272.53-0.45 271.18-0.9 269.88-1.9L269.88-1.9Q267.18-3.8 267.18-7.95L267.18-7.95 267.18-8.55Q267.18-10.7 269.93-10.65L269.93-10.65Q272.73-10.65 272.73-8.55L272.73-8.55 272.73-8Q272.73-6.8 273.48-5.75 274.23-4.7 276.13-4.7L276.13-4.7 282.73-4.7Q284.63-4.7 285.38-5.75 286.13-6.8 286.13-8L286.13-8 286.13-9.4Q286.13-10.05 285.95-10.65 285.78-11.25 285.38-11.73 284.98-12.2 284.33-12.5 283.68-12.8 282.73-12.8L282.73-12.8 275.43-12.8Q272.88-12.8 270.08-14.6L270.08-14.6Q267.43-16.3 267.43-20.45L267.43-20.45 267.43-22.15Q267.43-24.15 268.13-25.68 268.83-27.2 270.13-28.15L270.13-28.15 270.08-28.15Q271.33-29 272.73-29.55 274.13-30.1 275.43-30.1L275.43-30.1 283.43-30.1Q284.73-30.1 286.1-29.55 287.48-29 288.78-28.15L288.78-28.15 288.73-28.15Q290.03-27.2 290.73-25.68 291.43-24.15 291.43-22.15L291.43-22.15 291.43-21.7Q291.43-20.65 290.73-20.18 290.03-19.7 288.68-19.65L288.68-19.65Q285.93-19.6 285.93-21.7L285.93-21.7 285.93-22.1Q285.93-23.35 285.15-24.38 284.38-25.4 282.53-25.4L282.53-25.4 276.33-25.4Q274.48-25.4 273.7-24.38 272.93-23.35 272.93-22.1L272.93-22.1 272.93-20.9Q272.93-19.6 273.7-18.55 274.48-17.5 276.33-17.5L276.33-17.5Z" opacity="1" transform="matrix(1,0,0,1,0,0)" fill="#ffffff" class="wordmark-text-0" data-fill-palette-color="primary" id="text-0"/></svg></g></svg></g></svg></g></svg></g></svg></g></svg><rect width="395.52" height="56.15916579770593" fill="none" stroke="none" visibility="hidden"/></g></svg>